<?xml version="1.0" encoding="UTF-8"?><svg id="b" xmlns="http://www.w3.org/2000/svg" viewBox="0 0 4.19732 4.19732"><g id="c"><path d="M3.78974,3.10887l-.68086.68086c-.26419.27314-.6321.421-1.01184.40663-.37973.01437-.74765-.13348-1.01184-.40663l-.68086-.68086c-.54277-.56321-.53858-1.45613.00946-2.01422l.68086-.68086c.55808-.54803,1.45101-.55222,2.01422-.00946l.68086.68086c.27314.26419.421.6321.40663,1.01184.01437.37973-.13348.74765-.40663,1.01184ZM.83933,1.5202c-.1501.1501-.23213.35517-.22695.56739-.00156.20598.08031.40382.22695.54847l.68086.68086c.1471.14992.3479.23501.55793.23641.20943-.00425.4092-.0889.55793-.23641l.68086-.68086c.14751-.14873.23216-.3485.23641-.55793-.0014-.21003-.08649-.41083-.23641-.55793l-.68086-.68086c-.14465-.14665-.34249-.22851-.54847-.22695-.21222-.00518-.41728.07685-.56739.22695l-.68086.68086Z" fill="#fff"/></g></svg>